<svg preserveAspectRatio="xMidYMid meet" data-bbox="0 0 407.59 141.92" viewBox="0 0 407.59 141.92" xmlns="http://www.w3.org/2000/svg" data-type="ugc" role="presentation" aria-hidden="true" aria-label="">
    <g>
        <path d="m238.93 94.78-4.32 11.15h-1.72l-4.32-11.15h1.59l3.6 9.62 3.6-9.62h1.58Z" fill="#ffffff"></path>
        <path d="M249.31 95.96v3.73h4.17v1.2h-4.17v3.84h4.66v1.2h-6.16V94.76h6.16v1.2h-4.66Z" fill="#ffffff"></path>
        <path d="M272.42 105.93h-1.49l-6.01-8.88v8.88h-1.49V94.76h1.49l6.01 8.86v-8.86h1.49v11.17Z" fill="#ffffff"></path>
        <path d="M289.16 94.78v1.18h-3.12v9.97h-1.49v-9.97h-3.14v-1.18h7.75Z" fill="#ffffff"></path>
        <path d="M299.61 94.78v7.06c0 .99.25 1.73.75 2.21s1.19.72 2.08.72 1.56-.24 2.06-.72.75-1.22.75-2.21v-7.06h1.49v7.04c0 .93-.19 1.71-.57 2.34a3.6 3.6 0 0 1-1.55 1.42c-.65.31-1.38.46-2.19.46s-1.54-.15-2.19-.46c-.65-.31-1.17-.78-1.54-1.42-.38-.63-.57-1.42-.57-2.34v-7.04h1.49Z" fill="#ffffff"></path>
        <path d="m322.75 105.93-2.73-4.56h-1.81v4.56h-1.49V94.78h3.7c.86 0 1.6.14 2.19.43.6.29 1.04.68 1.34 1.17.3.49.44 1.05.44 1.68 0 .77-.23 1.45-.68 2.03-.45.59-1.14.98-2.04 1.17l2.87 4.67h-1.79Zm-4.54-5.73h2.2c.81 0 1.42-.19 1.82-.58.41-.39.61-.91.61-1.56s-.2-1.17-.6-1.54c-.4-.36-1.01-.54-1.83-.54h-2.2v4.22Z" fill="#ffffff"></path>
        <path d="M335.5 95.96v3.73h4.17v1.2h-4.17v3.84h4.66v1.2H334V94.76h6.16v1.2h-4.66Z" fill="#ffffff"></path>
        <path d="M350.89 105.65c-.6-.26-1.06-.62-1.4-1.09s-.51-1-.53-1.61h1.59c.05.52.28.96.67 1.32.39.36.96.54 1.7.54s1.27-.17 1.68-.52c.41-.35.62-.79.62-1.34 0-.43-.12-.77-.36-1.04s-.54-.47-.9-.61-.85-.29-1.46-.45c-.76-.19-1.36-.38-1.81-.58a2.98 2.98 0 0 1-1.17-.9c-.32-.41-.48-.96-.48-1.66 0-.61.16-1.15.48-1.62.32-.47.76-.83 1.34-1.09.58-.26 1.23-.38 1.98-.38 1.07 0 1.95.26 2.64.78.68.52 1.07 1.22 1.16 2.08H355c-.05-.43-.28-.8-.69-1.13-.41-.33-.94-.49-1.61-.49-.62 0-1.13.16-1.53.47-.39.31-.59.75-.59 1.32 0 .41.12.74.35.99.24.26.53.45.87.58.34.13.83.29 1.45.46.76.2 1.36.4 1.82.6.46.2.85.5 1.18.91.33.41.49.97.49 1.67 0 .54-.15 1.06-.44 1.54s-.73.87-1.31 1.17c-.58.3-1.26.45-2.05.45s-1.43-.13-2.03-.39Z" fill="#ffffff"></path>
        <path d="M89.1 53.37c-1.27-1.68-2.97-3.03-5.11-4.05a15.632 15.632 0 0 0-6.75-1.52c-3.1 0-5.92.76-8.46 2.27-2.54 1.51-4.54 3.67-6 6.47-1.46 2.81-2.2 6.02-2.2 9.65s.73 6.92 2.2 9.74c1.46 2.83 3.46 5.02 6 6.57 2.53 1.55 5.33 2.33 8.39 2.33 2.71 0 5.09-.54 7.15-1.62 2.05-1.08 3.65-2.5 4.79-4.27v5.31h9.31V36.34h-9.31v17.03Zm-1.24 18.61c-.87 1.58-2.05 2.78-3.54 3.63-1.49.84-3.08 1.26-4.79 1.26s-3.22-.43-4.69-1.29c-1.46-.86-2.64-2.1-3.54-3.72-.9-1.62-1.34-3.51-1.34-5.67s.45-4.02 1.34-5.6c.9-1.58 2.06-2.77 3.51-3.59 1.44-.82 3.02-1.23 4.72-1.23s3.3.42 4.79 1.26c1.49.84 2.67 2.05 3.54 3.63.87 1.58 1.31 3.46 1.31 5.67s-.44 4.09-1.31 5.67Z" fill="#ffffff"></path>
        <path d="M128.11 50c-2.73-1.47-5.82-2.2-9.28-2.2s-6.75.76-9.51 2.27c-2.75 1.51-4.9 3.67-6.42 6.47-1.53 2.81-2.29 6.07-2.29 9.78s.77 6.91 2.33 9.71c1.55 2.81 3.71 4.98 6.49 6.51 2.77 1.53 5.91 2.3 9.41 2.3 4.33 0 7.97-1.11 10.95-3.33 2.97-2.22 4.98-5.06 6.03-8.51h-9.9c-1.44 2.89-3.87 4.34-7.28 4.34-2.36 0-4.35-.73-5.97-2.2-1.62-1.47-2.54-3.5-2.75-6.09h26.55c.17-1.04.26-2.2.26-3.5 0-3.5-.75-6.59-2.26-9.29-1.51-2.7-3.63-4.78-6.36-6.25Zm-18.12 12.95c.35-2.42 1.3-4.31 2.85-5.67 1.55-1.36 3.46-2.04 5.74-2.04 2.4 0 4.44.7 6.1 2.1 1.66 1.4 2.51 3.27 2.56 5.6H110Z" fill="#ffffff"></path>
        <path d="M165.49 53.5c-1.23-1.64-2.85-3-4.88-4.08s-4.4-1.62-7.11-1.62c-3.1 0-5.91.76-8.42 2.27s-4.5 3.67-5.97 6.47c-1.46 2.81-2.2 6.02-2.2 9.65s.73 6.92 2.2 9.74c1.46 2.83 3.45 5.02 5.97 6.57 2.51 1.55 5.3 2.33 8.36 2.33 2.71 0 5.1-.55 7.18-1.65 2.08-1.1 3.7-2.49 4.88-4.18v5.24h9.24V48.37h-9.24v5.11Zm-1.31 18.48c-.87 1.58-2.05 2.78-3.54 3.63-1.49.84-3.08 1.26-4.79 1.26s-3.22-.43-4.69-1.29c-1.46-.86-2.64-2.1-3.54-3.72-.9-1.62-1.34-3.51-1.34-5.67s.45-4.02 1.34-5.6c.9-1.58 2.06-2.77 3.51-3.59 1.44-.82 3.02-1.23 4.72-1.23s3.3.42 4.79 1.26c1.49.84 2.67 2.05 3.54 3.63.87 1.58 1.31 3.46 1.31 5.67s-.44 4.09-1.31 5.67Z" fill="#ffffff"></path>
        <path d="M200.91 65.09c-1.7-.69-3.87-1.36-6.49-2.01-2.58-.65-4.48-1.28-5.7-1.91-1.22-.63-1.84-1.54-1.84-2.75 0-1.08.45-1.92 1.34-2.53.9-.6 2.17-.91 3.83-.91 1.79 0 3.22.42 4.29 1.26 1.07.84 1.67 1.97 1.8 3.4h8.78c-.26-3.63-1.68-6.51-4.26-8.64s-6.03-3.2-10.36-3.2c-2.93 0-5.47.48-7.64 1.42-2.16.95-3.82 2.25-4.98 3.89-1.16 1.64-1.74 3.45-1.74 5.44 0 2.42.62 4.34 1.87 5.76s2.73 2.48 4.46 3.17 3.94 1.36 6.65 2.01c2.62.69 4.53 1.33 5.74 1.91 1.2.58 1.8 1.46 1.8 2.62 0 1.08-.49 1.96-1.47 2.65s-2.35 1.04-4.1 1.04-3.29-.45-4.49-1.36c-1.2-.91-1.89-2.05-2.06-3.43h-9.24c.13 2.2.88 4.21 2.26 6.02s3.24 3.25 5.6 4.31c2.36 1.06 5.03 1.59 8 1.59s5.41-.46 7.57-1.39c2.16-.93 3.82-2.21 4.98-3.85 1.16-1.64 1.74-3.5 1.74-5.57-.04-2.37-.69-4.28-1.93-5.73-1.25-1.45-2.72-2.51-4.42-3.2Z" fill="#ffffff"></path>
        <path d="M239.73 50.06c-2.51-1.51-5.32-2.27-8.42-2.27-2.67 0-5.04.55-7.11 1.65-2.08 1.1-3.7 2.47-4.88 4.11v-5.18h-9.18v50.38l4.58-2.64 4.6-2.65V79.13c1.27 1.64 2.92 3 4.95 4.08 2.03 1.08 4.38 1.62 7.05 1.62 3.1 0 5.91-.78 8.42-2.33s4.5-3.74 5.97-6.57c1.46-2.83 2.2-6.07 2.2-9.74s-.73-6.9-2.2-9.68c-1.46-2.78-3.45-4.93-5.97-6.44Zm-2.56 21.82c-.9 1.6-2.08 2.83-3.54 3.69-1.46.86-3.05 1.29-4.75 1.29s-3.22-.42-4.69-1.26c-1.46-.84-2.64-2.06-3.54-3.66-.9-1.6-1.34-3.47-1.34-5.63s.45-4.04 1.34-5.63c.9-1.6 2.08-2.82 3.54-3.66 1.46-.84 3.03-1.26 4.69-1.26s3.29.41 4.75 1.23c1.46.82 2.64 2.02 3.54 3.59.9 1.58 1.34 3.44 1.34 5.6s-.45 4.1-1.34 5.7Z" fill="#ffffff"></path>
        <path d="M276.65 53.5c-1.23-1.64-2.85-3-4.88-4.08s-4.4-1.62-7.11-1.62c-3.1 0-5.91.76-8.42 2.27s-4.5 3.67-5.97 6.47c-1.46 2.81-2.2 6.02-2.2 9.65s.73 6.92 2.2 9.74c1.46 2.83 3.45 5.02 5.97 6.57 2.51 1.55 5.3 2.33 8.36 2.33 2.71 0 5.1-.55 7.18-1.65 2.08-1.1 3.7-2.49 4.88-4.18v5.24h9.24V48.37h-9.24v5.11Zm-1.31 18.48c-.87 1.58-2.05 2.78-3.54 3.63-1.49.84-3.08 1.26-4.79 1.26s-3.22-.43-4.69-1.29c-1.46-.86-2.64-2.1-3.54-3.72-.9-1.62-1.34-3.51-1.34-5.67s.45-4.02 1.34-5.6c.9-1.58 2.06-2.77 3.51-3.59 1.44-.82 3.02-1.23 4.72-1.23s3.3.42 4.79 1.26c1.49.84 2.67 2.05 3.54 3.63.87 1.58 1.31 3.46 1.31 5.67s-.44 4.09-1.31 5.67Z" fill="#ffffff"></path>
        <path d="M305.99 77.06c-2.62 0-4.7-.94-6.23-2.82-1.53-1.88-2.29-4.52-2.29-7.93s.76-6.12 2.29-8 3.61-2.82 6.23-2.82c1.84 0 3.38.44 4.62 1.33 1.25.89 2.13 2.1 2.65 3.66h9.9c-1.01-4.01-2.98-7.13-5.93-9.36-2.95-2.22-6.68-3.33-11.18-3.33-3.5 0-6.6.77-9.31 2.3-2.71 1.53-4.83 3.69-6.36 6.47-1.53 2.78-2.29 6.03-2.29 9.74s.76 6.96 2.29 9.74c1.53 2.78 3.65 4.94 6.36 6.47 2.71 1.53 5.81 2.3 9.31 2.3 4.46 0 8.17-1.14 11.14-3.43 2.97-2.29 4.96-5.37 5.97-9.26h-9.9c-1.14 3.28-3.56 4.92-7.28 4.92Z" fill="#ffffff"></path>
        <path d="M359.03 65.54c0-3.5-.75-6.59-2.26-9.29-1.51-2.7-3.63-4.78-6.36-6.25-2.73-1.47-5.82-2.2-9.28-2.2s-6.75.76-9.51 2.27c-2.75 1.51-4.9 3.67-6.42 6.47-1.53 2.81-2.29 6.07-2.29 9.78s.77 6.91 2.33 9.71c1.55 2.81 3.71 4.98 6.49 6.51 2.77 1.53 5.91 2.3 9.41 2.3 4.33 0 7.97-1.11 10.95-3.33 2.97-2.22 4.98-5.06 6.03-8.51h-9.9c-1.44 2.89-3.87 4.34-7.28 4.34-2.36 0-4.35-.73-5.97-2.2-1.62-1.47-2.54-3.5-2.75-6.09h26.55c.17-1.04.26-2.2.26-3.5Zm-26.75-2.59c.35-2.42 1.3-4.31 2.85-5.67 1.55-1.36 3.46-2.04 5.74-2.04 2.4 0 4.44.7 6.1 2.1 1.66 1.4 2.51 3.27 2.56 5.6h-17.24Z" fill="#ffffff"></path>
        <path fill="#ffffff" d="M210.13 98.86v-.1l-.08.05.08.05z"></path>
        <path fill="#ffffff" d="m57.73 51.6-4.59 2.65-4.58 2.64v27.36h9.18l-.01-35.8v3.15z"></path>
        <path fill="#85be40" d="m53.14 38.34-4.59-2.65-4.59 2.65-4.6 2.65 4.6 2.65 4.59 2.65V56.9l.01-.01 4.58-2.64 4.59-2.65V40.99l-4.59-2.65z"></path>
        <path fill="none" d="M0 0v141.92h407.59V0"></path>
    </g>
</svg>